<svg xmlns="http://www.w3.org/2000/svg" xmlns:xlink="http://www.w3.org/1999/xlink" width="56" zoomAndPan="magnify" viewBox="0 0 42 36.000001" height="48" preserveAspectRatio="xMidYMid meet" version="1.0"><defs><clipPath id="b818c0243b"><path d="M 3.851562 0.363281 L 38.148438 0.363281 L 38.148438 34.664062 L 3.851562 34.664062 Z M 3.851562 0.363281 " clip-rule="nonzero"/></clipPath></defs><g clip-path="url(#b818c0243b)"><path fill="#ffffff" d="M 13.523438 32.949219 C 14.144531 32.011719 14.738281 30.996094 15.304688 29.890625 C 14.511719 30.917969 13.761719 31.851562 13.042969 32.707031 C 13.199219 32.789062 13.359375 32.871094 13.523438 32.949219 Z M 26.324219 14.792969 C 26.617188 20.746094 25.421875 25.878906 19.136719 27.042969 C 19.164062 26.871094 19.175781 26.695312 19.164062 26.515625 C 20.777344 25.898438 23.464844 23.402344 23.683594 21.214844 C 23.144531 23.789062 20.054688 25.507812 19.039062 25.917969 C 18.972656 25.730469 18.875 25.539062 18.742188 25.347656 C 23.632812 22.308594 22.953125 17.300781 22.917969 16.683594 C 22.851562 17.875 22.402344 20.105469 21.246094 21.667969 C 20.476562 22.707031 18.8125 23.78125 17.78125 24.386719 C 16.53125 23.457031 15.304688 23.203125 13.863281 23.933594 L 13.859375 23.929688 C 13.859375 23.929688 12.429688 10.132812 28.171875 7.984375 C 28.171875 7.984375 26.085938 9.976562 26.324219 14.792969 Z M 21 0.363281 C 11.527344 0.363281 3.851562 8.042969 3.851562 17.511719 C 3.851562 22.441406 5.929688 26.882812 9.253906 30.007812 C 9.800781 29.179688 10.351562 28.28125 10.902344 27.3125 C 10.902344 27.3125 13.539062 23.460938 16.632812 25.402344 C 19.730469 27.347656 18.253906 29.28125 17.441406 30.578125 C 16.738281 31.699219 16.023438 32.734375 15.296875 33.691406 C 17.078125 34.320312 19 34.664062 21 34.664062 C 30.472656 34.664062 38.148438 26.984375 38.148438 17.511719 C 38.148438 8.042969 30.472656 0.367188 21 0.363281 " fill-opacity="1" fill-rule="evenodd"/></g></svg>