<svg xmlns="http://www.w3.org/2000/svg" xmlns:xlink="http://www.w3.org/1999/xlink" width="56" zoomAndPan="magnify" viewBox="0 0 42 36.000001" height="48" preserveAspectRatio="xMidYMid meet" version="1.0"><defs><clipPath id="1ad6a173bf"><path d="M 8 13 L 24 13 L 24 35.027344 L 8 35.027344 Z M 8 13 " clip-rule="nonzero"/></clipPath><clipPath id="bc9f7610ac"><path d="M 28 19 L 39.660156 19 L 39.660156 33 L 28 33 Z M 28 19 " clip-rule="nonzero"/></clipPath></defs><path fill="#ffffff" d="M 25.003906 25.941406 L 27.835938 31.960938 L 28.859375 31.480469 L 26.207031 25.847656 C 25.953125 25.925781 25.683594 25.96875 25.410156 25.96875 C 25.273438 25.96875 25.136719 25.960938 25.003906 25.941406 Z M 25.003906 25.941406 " fill-opacity="1" fill-rule="nonzero"/><g clip-path="url(#1ad6a173bf)"><path fill="#ffffff" d="M 22.734375 23.785156 L 20.773438 24.050781 L 17.25 25.285156 L 9.179688 13.660156 L 8.25 14.304688 L 16.699219 26.472656 L 18.730469 35.023438 L 19.828125 34.761719 L 17.933594 26.789062 L 23.261719 24.925781 C 22.996094 24.585938 22.820312 24.195312 22.734375 23.785156 Z M 22.734375 23.785156 " fill-opacity="1" fill-rule="nonzero"/></g><path fill="#ffffff" d="M 10.304688 7.15625 C 11.597656 9.105469 14.222656 9.640625 16.175781 8.351562 C 18.125 7.058594 18.660156 4.433594 17.367188 2.480469 C 16.078125 0.53125 13.449219 -0.00390625 11.5 1.289062 C 9.546875 2.578125 9.015625 5.207031 10.304688 7.15625 Z M 16.816406 4.535156 C 16.851562 5.578125 16.363281 6.613281 15.429688 7.226562 C 14.5 7.84375 13.355469 7.890625 12.410156 7.453125 Z M 16.816406 4.535156 " fill-opacity="1" fill-rule="nonzero"/><g clip-path="url(#bc9f7610ac)"><path fill="#ffffff" d="M 31.535156 19.308594 L 28.683594 23.347656 L 34.957031 31.75 C 35.546875 32.539062 36.539062 32.847656 37.433594 32.613281 C 37.722656 32.535156 38 32.40625 38.25 32.214844 C 39.289062 31.433594 39.496094 29.960938 38.714844 28.921875 Z M 31.535156 19.308594 " fill-opacity="1" fill-rule="nonzero"/></g><path fill="#ffffff" d="M 23.175781 21.652344 L 25.609375 18.207031 L 21.664062 18.738281 L 21.875 18.28125 L 25.945312 17.730469 L 27.457031 15.589844 L 27.878906 15.742188 L 23.53125 21.902344 C 22.796875 22.941406 23.042969 24.378906 24.082031 25.113281 C 24.488281 25.402344 24.949219 25.539062 25.410156 25.539062 C 26.132812 25.539062 26.847656 25.199219 27.296875 24.5625 L 32.378906 17.367188 L 33.632812 15.589844 C 33.640625 15.578125 33.644531 15.570312 33.652344 15.558594 C 33.675781 15.523438 33.699219 15.484375 33.722656 15.449219 C 33.738281 15.417969 33.757812 15.390625 33.777344 15.359375 C 33.792969 15.324219 33.808594 15.292969 33.824219 15.257812 C 33.84375 15.222656 33.859375 15.1875 33.875 15.152344 C 33.886719 15.121094 33.898438 15.089844 33.910156 15.058594 C 33.925781 15.019531 33.941406 14.980469 33.953125 14.941406 C 33.960938 14.910156 33.96875 14.878906 33.976562 14.847656 C 33.988281 14.804688 34 14.765625 34.007812 14.726562 C 34.015625 14.691406 34.019531 14.652344 34.023438 14.617188 C 34.03125 14.582031 34.039062 14.546875 34.042969 14.507812 C 34.046875 14.46875 34.046875 14.425781 34.050781 14.386719 C 34.050781 14.351562 34.054688 14.320312 34.054688 14.289062 C 34.054688 14.246094 34.054688 14.203125 34.050781 14.160156 C 34.050781 14.128906 34.050781 14.097656 34.046875 14.0625 C 34.042969 14.023438 34.035156 13.984375 34.03125 13.945312 C 34.027344 13.910156 34.023438 13.871094 34.015625 13.835938 C 34.007812 13.800781 34 13.765625 33.992188 13.730469 C 33.980469 13.691406 33.972656 13.648438 33.960938 13.609375 C 33.957031 13.597656 33.953125 13.585938 33.949219 13.570312 C 33.945312 13.550781 33.9375 13.535156 33.929688 13.515625 C 33.914062 13.472656 33.902344 13.433594 33.882812 13.390625 C 33.871094 13.359375 33.859375 13.332031 33.84375 13.300781 C 33.828125 13.261719 33.808594 13.222656 33.789062 13.1875 C 33.773438 13.15625 33.753906 13.125 33.738281 13.097656 C 33.71875 13.0625 33.695312 13.027344 33.675781 12.992188 C 33.65625 12.964844 33.632812 12.933594 33.613281 12.90625 C 33.589844 12.875 33.566406 12.84375 33.542969 12.8125 C 33.519531 12.785156 33.496094 12.753906 33.46875 12.726562 C 33.445312 12.699219 33.417969 12.671875 33.394531 12.644531 C 33.367188 12.617188 33.339844 12.589844 33.308594 12.566406 C 33.28125 12.539062 33.253906 12.515625 33.226562 12.492188 C 33.195312 12.464844 33.164062 12.441406 33.132812 12.417969 C 33.113281 12.40625 33.097656 12.390625 33.078125 12.375 C 33.066406 12.367188 33.054688 12.363281 33.042969 12.351562 C 33.011719 12.332031 32.980469 12.3125 32.949219 12.292969 C 32.914062 12.273438 32.878906 12.25 32.84375 12.230469 C 32.816406 12.21875 32.789062 12.203125 32.761719 12.191406 C 32.71875 12.171875 32.679688 12.148438 32.636719 12.132812 C 32.613281 12.121094 32.589844 12.113281 32.566406 12.105469 C 32.519531 12.085938 32.472656 12.070312 32.425781 12.054688 C 32.402344 12.050781 32.375 12.042969 32.351562 12.035156 C 32.304688 12.023438 32.257812 12.011719 32.210938 12 C 32.183594 11.996094 32.152344 11.992188 32.125 11.988281 C 32.082031 11.980469 32.039062 11.972656 31.992188 11.96875 C 31.960938 11.964844 31.925781 11.960938 31.890625 11.960938 C 31.851562 11.957031 31.8125 11.957031 31.773438 11.953125 C 31.738281 11.953125 31.699219 11.957031 31.660156 11.957031 C 31.625 11.960938 31.585938 11.960938 31.550781 11.964844 C 31.515625 11.964844 31.476562 11.972656 31.441406 11.976562 C 31.402344 11.980469 31.363281 11.988281 31.324219 11.996094 C 31.289062 12 31.257812 12.007812 31.226562 12.015625 C 31.183594 12.027344 31.140625 12.039062 31.097656 12.050781 C 31.085938 12.054688 31.074219 12.054688 31.0625 12.058594 L 21.613281 15.015625 C 20.429688 12.867188 20.308594 10.835938 20.53125 8.402344 C 21.015625 8.210938 21.542969 7.996094 22.070312 7.765625 C 24.847656 6.542969 26.632812 5.378906 26.300781 3.6875 C 25.96875 1.984375 23.769531 1.753906 22.832031 1.65625 C 21.492188 1.515625 19.644531 1.5 17.21875 1.605469 C 17.40625 1.800781 17.574219 2.011719 17.730469 2.242188 C 18.207031 2.960938 18.453125 3.765625 18.496094 4.574219 C 19.941406 4.53125 20.996094 4.546875 21.765625 4.589844 C 20.828125 5.046875 19.609375 5.554688 18.34375 6.015625 C 18.0625 7.082031 17.402344 8.054688 16.414062 8.710938 C 14.730469 9.824219 12.585938 9.703125 11.050781 8.5625 C 11.027344 8.578125 11 8.589844 10.976562 8.605469 C 9.929688 9.289062 8.828125 9.941406 7.855469 10.464844 C 8.425781 9.773438 9.195312 8.890625 10.222656 7.773438 C 10.125 7.652344 10.03125 7.527344 9.945312 7.394531 C 9.351562 6.5 9.109375 5.472656 9.183594 4.476562 C 7.089844 6.683594 5.546875 8.453125 4.597656 9.746094 C 3.867188 10.738281 2.507812 12.585938 3.628906 13.945312 C 4.03125 14.433594 4.5625 14.632812 5.175781 14.632812 C 6.355469 14.632812 7.839844 13.898438 9.304688 13.105469 C 9.707031 12.886719 10.097656 12.664062 10.464844 12.449219 C 11.839844 16.460938 13.921875 19.285156 16.839844 22.804688 C 16.96875 22.960938 17.113281 23.089844 17.269531 23.199219 C 17.769531 23.664062 18.464844 23.914062 19.195312 23.816406 L 19.308594 23.800781 L 22.679688 23.347656 C 22.65625 22.761719 22.8125 22.167969 23.175781 21.652344 Z M 23.175781 21.652344 " fill-opacity="1" fill-rule="nonzero"/></svg>