<svg xmlns="http://www.w3.org/2000/svg" xmlns:xlink="http://www.w3.org/1999/xlink" width="56" zoomAndPan="magnify" viewBox="0 0 42 36.000001" height="48" preserveAspectRatio="xMidYMid meet" version="1.0"><defs><clipPath id="50fea3004e"><path d="M 5 24 L 38.601562 24 L 38.601562 35 L 5 35 Z M 5 24 " clip-rule="nonzero"/></clipPath><clipPath id="fbccb4929e"><path d="M 3.574219 12 L 30 12 L 30 26 L 3.574219 26 Z M 3.574219 12 " clip-rule="nonzero"/></clipPath><clipPath id="e9832e905f"><path d="M 10.636719 5.6875 L 24.847656 5.6875 L 24.847656 19.894531 L 10.636719 19.894531 Z M 10.636719 5.6875 " clip-rule="nonzero"/></clipPath><clipPath id="cf4c4ed0ce"><path d="M 17.742188 5.6875 C 13.816406 5.6875 10.636719 8.867188 10.636719 12.789062 C 10.636719 16.714844 13.816406 19.894531 17.742188 19.894531 C 21.664062 19.894531 24.847656 16.714844 24.847656 12.789062 C 24.847656 8.867188 21.664062 5.6875 17.742188 5.6875 Z M 17.742188 5.6875 " clip-rule="nonzero"/></clipPath><clipPath id="e612dd7286"><path d="M 14.003906 8.234375 L 19 8.234375 L 19 16 L 14.003906 16 Z M 14.003906 8.234375 " clip-rule="nonzero"/></clipPath><clipPath id="b831cf7be7"><path d="M 19 10 L 22.761719 10 L 22.761719 16.988281 L 19 16.988281 Z M 19 10 " clip-rule="nonzero"/></clipPath></defs><g clip-path="url(#50fea3004e)"><path fill="#ffffff" d="M 35.160156 27.667969 L 35.050781 27.5 C 35.039062 27.480469 33.773438 25.597656 30.957031 24.796875 C 28.207031 24.011719 26.414062 24.671875 22.082031 26.261719 C 21.859375 26.34375 21.617188 26.429688 21.367188 26.515625 C 20.097656 26.960938 18.605469 27.484375 17.488281 28.363281 C 17.460938 28.386719 17.433594 28.410156 17.402344 28.433594 C 16.964844 28.789062 16.589844 29.199219 16.3125 29.6875 C 16.273438 29.757812 16.300781 29.816406 16.324219 29.855469 C 16.351562 29.890625 16.414062 29.945312 16.496094 29.929688 C 16.957031 29.851562 17.472656 29.761719 18.027344 29.652344 C 23.234375 28.65625 26.414062 29.65625 26.113281 29.65625 C 24.136719 29.660156 20.722656 30.28125 18.226562 30.734375 C 17.667969 30.839844 17.148438 30.933594 16.6875 31.011719 C 16.199219 31.09375 15.714844 30.898438 15.425781 30.488281 C 15.140625 30.085938 15.117188 29.570312 15.359375 29.144531 C 15.554688 28.796875 15.792969 28.480469 16.054688 28.191406 C 14.421875 27.648438 10.796875 26.550781 8.277344 26.550781 C 8.242188 26.550781 8.210938 26.550781 8.179688 26.550781 C 6.636719 26.566406 5.800781 27.277344 5.371094 27.867188 C 5.316406 27.9375 5.328125 28.011719 5.339844 28.046875 C 5.351562 28.085938 5.382812 28.152344 5.46875 28.1875 L 19.332031 33.582031 C 19.484375 33.640625 19.640625 33.652344 19.796875 33.621094 C 22.210938 33.105469 27.957031 31.910156 29.101562 31.910156 C 30.292969 31.910156 35.789062 34.078125 38.019531 34.980469 L 38.417969 28.617188 L 35.160156 27.667969 " fill-opacity="1" fill-rule="nonzero"/></g><path fill="#ffffff" d="M 6.710938 10.546875 C 7.152344 10.671875 7.605469 10.417969 7.730469 9.980469 C 9.164062 4.953125 13.964844 1.78125 19.144531 2.433594 C 23.738281 3.011719 27.390625 6.613281 28.167969 11.082031 L 27.113281 10.292969 C 26.746094 10.019531 26.230469 10.097656 25.957031 10.460938 C 25.6875 10.824219 25.761719 11.34375 26.125 11.617188 L 28.738281 13.566406 C 28.882812 13.675781 29.054688 13.730469 29.234375 13.730469 C 29.273438 13.730469 29.3125 13.730469 29.351562 13.722656 C 29.566406 13.691406 29.761719 13.574219 29.894531 13.398438 L 31.84375 10.789062 C 32.117188 10.421875 32.042969 9.90625 31.679688 9.632812 C 31.3125 9.359375 30.796875 9.433594 30.523438 9.800781 L 29.792969 10.777344 C 28.90625 5.554688 24.753906 1.476562 19.351562 0.796875 C 13.359375 0.0390625 7.800781 3.710938 6.144531 9.527344 C 6.019531 9.964844 6.273438 10.421875 6.710938 10.546875 " fill-opacity="1" fill-rule="nonzero"/><g clip-path="url(#fbccb4929e)"><path fill="#ffffff" d="M 16.375 24.976562 C 16.898438 25.042969 17.417969 25.074219 17.933594 25.074219 C 23.3125 25.074219 28.070312 21.554688 29.582031 16.246094 C 29.707031 15.808594 29.453125 15.351562 29.015625 15.226562 C 28.574219 15.101562 28.121094 15.359375 27.996094 15.796875 C 26.5625 20.820312 21.757812 23.992188 16.582031 23.339844 C 12 22.761719 8.355469 19.179688 7.566406 14.726562 L 8.574219 15.511719 C 8.933594 15.792969 9.453125 15.730469 9.734375 15.371094 C 10.011719 15.011719 9.949219 14.492188 9.589844 14.210938 L 7.019531 12.207031 C 6.65625 11.925781 6.140625 11.992188 5.859375 12.347656 L 3.851562 14.921875 C 3.574219 15.28125 3.636719 15.796875 3.996094 16.078125 C 4.148438 16.195312 4.324219 16.253906 4.503906 16.253906 C 4.75 16.253906 4.992188 16.144531 5.15625 15.9375 L 5.925781 14.949219 C 6.796875 20.195312 10.957031 24.296875 16.375 24.976562 " fill-opacity="1" fill-rule="nonzero"/></g><path fill="#ffffff" d="M 16.015625 10.710938 C 16.03125 10.863281 16.0625 11.019531 16.121094 11.179688 C 16.164062 11.300781 16.253906 11.425781 16.367188 11.535156 C 16.515625 11.679688 16.710938 11.8125 16.984375 11.953125 C 17.105469 12.011719 17.253906 12.066406 17.429688 12.113281 L 17.429688 9.007812 C 17.019531 9.09375 16.703125 9.257812 16.464844 9.503906 C 16.140625 9.851562 15.992188 10.246094 16.015625 10.710938 " fill-opacity="1" fill-rule="nonzero"/><path fill="#ffffff" d="M 19.167969 14.039062 L 19.167969 16.78125 C 19.261719 16.753906 19.339844 16.722656 19.40625 16.6875 C 19.648438 16.554688 19.78125 16.429688 19.847656 16.347656 C 19.933594 16.238281 20 16.121094 20.03125 16.007812 C 20.09375 15.820312 20.097656 15.742188 20.097656 15.734375 C 20.097656 15.730469 20.097656 15.726562 20.097656 15.722656 C 20.109375 15.140625 20 14.707031 19.765625 14.4375 C 19.625 14.277344 19.425781 14.144531 19.167969 14.039062 " fill-opacity="1" fill-rule="nonzero"/><path fill="#ffffff" d="M 21.664062 15.785156 C 21.621094 16.394531 21.359375 16.976562 20.882812 17.5 C 20.488281 17.941406 19.910156 18.230469 19.167969 18.359375 L 19.167969 18.644531 C 19.167969 18.929688 19.050781 19.171875 18.839844 19.328125 C 18.671875 19.449219 18.480469 19.515625 18.285156 19.515625 C 18.082031 19.515625 17.886719 19.445312 17.726562 19.3125 C 17.585938 19.195312 17.429688 18.992188 17.429688 18.644531 L 17.429688 18.386719 C 16.664062 18.296875 15.988281 18.070312 15.410156 17.707031 C 14.660156 17.226562 14.199219 16.53125 14.03125 15.632812 C 13.953125 15.328125 14.085938 15.105469 14.167969 15.003906 C 14.253906 14.902344 14.453125 14.730469 14.808594 14.757812 C 15.226562 14.769531 15.546875 15.039062 15.59375 15.445312 C 15.679688 15.789062 15.90625 16.121094 16.28125 16.402344 C 16.558594 16.613281 16.945312 16.757812 17.429688 16.828125 L 17.429688 13.714844 C 16.632812 13.589844 15.96875 13.3125 15.449219 12.878906 C 14.835938 12.34375 14.480469 11.652344 14.382812 10.816406 C 14.339844 10.351562 14.402344 9.90625 14.566406 9.480469 C 14.738281 9.054688 14.984375 8.695312 15.300781 8.398438 C 15.605469 8.101562 15.992188 7.863281 16.472656 7.679688 C 16.78125 7.566406 17.09375 7.488281 17.429688 7.441406 L 17.429688 7.132812 C 17.429688 6.808594 17.574219 6.605469 17.695312 6.492188 C 18.058594 6.175781 18.515625 6.191406 18.855469 6.460938 C 19.066406 6.648438 19.167969 6.878906 19.167969 7.132812 L 19.167969 7.53125 C 19.773438 7.679688 20.289062 7.960938 20.707031 8.375 C 21.25 8.914062 21.539062 9.632812 21.5625 10.515625 C 21.5625 10.558594 21.558594 10.605469 21.550781 10.648438 C 21.460938 11.050781 21.191406 11.320312 20.824219 11.363281 C 20.378906 11.421875 20.039062 11.121094 19.984375 10.664062 C 19.964844 10.472656 19.925781 10.285156 19.863281 10.089844 C 19.808594 9.917969 19.71875 9.757812 19.609375 9.625 C 19.480469 9.472656 19.335938 9.335938 19.167969 9.21875 L 19.167969 12.398438 C 19.609375 12.511719 19.976562 12.664062 20.273438 12.855469 C 20.652344 13.089844 20.960938 13.382812 21.1875 13.714844 C 21.410156 14.066406 21.550781 14.417969 21.609375 14.785156 C 21.675781 15.128906 21.695312 15.460938 21.664062 15.785156 Z M 17.769531 5.054688 C 13.445312 5.097656 9.972656 8.636719 10.015625 12.960938 C 10.054688 17.285156 13.59375 20.757812 17.917969 20.71875 C 22.246094 20.675781 25.714844 17.136719 25.675781 12.8125 C 25.632812 8.488281 22.09375 5.015625 17.769531 5.054688 " fill-opacity="1" fill-rule="nonzero"/><g clip-path="url(#e9832e905f)"><g clip-path="url(#cf4c4ed0ce)"><path fill="#ffffff" d="M 10.636719 5.6875 L 24.847656 5.6875 L 24.847656 19.894531 L 10.636719 19.894531 Z M 10.636719 5.6875 " fill-opacity="1" fill-rule="nonzero"/></g></g><g clip-path="url(#e612dd7286)"><path fill="#a6a6a6" d="M 18.253906 15 L 17.382812 12.808594 C 17.300781 12.617188 17.195312 12.4375 17.066406 12.273438 C 17.496094 12.046875 17.8125 11.714844 18.015625 11.273438 C 18.21875 10.832031 18.269531 10.375 18.160156 9.902344 C 18.054688 9.425781 17.8125 9.035156 17.4375 8.722656 C 17.0625 8.414062 16.632812 8.25 16.148438 8.234375 L 15.078125 8.234375 C 14.933594 8.234375 14.796875 8.257812 14.667969 8.3125 C 14.535156 8.367188 14.417969 8.445312 14.320312 8.546875 C 14.21875 8.648438 14.140625 8.761719 14.085938 8.894531 C 14.03125 9.023438 14.003906 9.160156 14.003906 9.304688 L 14.003906 15.199219 C 14.003906 15.347656 14.058594 15.472656 14.160156 15.578125 C 14.265625 15.683594 14.394531 15.734375 14.539062 15.734375 C 14.6875 15.734375 14.816406 15.683594 14.917969 15.578125 C 15.023438 15.472656 15.078125 15.347656 15.078125 15.199219 L 15.078125 12.519531 L 15.300781 12.519531 C 15.535156 12.515625 15.746094 12.578125 15.941406 12.703125 C 16.136719 12.828125 16.28125 13 16.375 13.210938 L 17.246094 15.398438 C 17.339844 15.628906 17.507812 15.738281 17.757812 15.734375 C 17.824219 15.734375 17.890625 15.722656 17.953125 15.699219 C 18.09375 15.644531 18.191406 15.546875 18.25 15.410156 C 18.308594 15.273438 18.308594 15.136719 18.253906 15 Z M 15.078125 9.304688 L 16.148438 9.304688 C 16.296875 9.304688 16.4375 9.332031 16.574219 9.390625 C 16.707031 9.449219 16.828125 9.53125 16.929688 9.640625 C 17.03125 9.746094 17.105469 9.867188 17.15625 10.007812 C 17.207031 10.144531 17.226562 10.289062 17.21875 10.433594 C 17.1875 10.730469 17.058594 10.972656 16.835938 11.167969 C 16.613281 11.363281 16.351562 11.457031 16.058594 11.449219 L 15.078125 11.449219 Z M 15.078125 9.304688 " fill-opacity="1" fill-rule="nonzero"/></g><g clip-path="url(#b831cf7be7)"><path fill="#a6a6a6" d="M 19.363281 16.808594 C 19.363281 16.953125 19.417969 17.082031 19.519531 17.1875 C 19.625 17.289062 19.75 17.34375 19.898438 17.34375 C 20.046875 17.34375 20.175781 17.289062 20.277344 17.1875 C 20.382812 17.082031 20.4375 16.953125 20.4375 16.808594 L 20.4375 15.011719 C 20.6875 15.136719 20.957031 15.199219 21.238281 15.199219 C 21.488281 15.199219 21.726562 15.152344 21.957031 15.054688 C 22.1875 14.960938 22.390625 14.824219 22.566406 14.648438 C 22.742188 14.472656 22.878906 14.269531 22.972656 14.042969 C 23.066406 13.8125 23.113281 13.570312 23.113281 13.324219 L 23.113281 12.789062 C 23.117188 12.625 23.097656 12.464844 23.054688 12.304688 C 23.011719 12.148438 22.953125 11.996094 22.871094 11.855469 C 22.789062 11.714844 22.691406 11.585938 22.578125 11.46875 C 22.464844 11.351562 22.335938 11.253906 22.195312 11.167969 C 22.054688 11.085938 21.90625 11.023438 21.746094 10.980469 C 21.589844 10.9375 21.429688 10.914062 21.265625 10.914062 C 21.101562 10.910156 20.941406 10.929688 20.785156 10.972656 C 20.625 11.011719 20.476562 11.074219 20.332031 11.152344 C 20.230469 10.996094 20.085938 10.917969 19.898438 10.910156 C 19.75 10.910156 19.625 10.964844 19.519531 11.070312 C 19.417969 11.171875 19.363281 11.300781 19.363281 11.449219 Z M 22.042969 13.324219 C 22.042969 13.546875 21.964844 13.734375 21.808594 13.890625 C 21.652344 14.046875 21.460938 14.128906 21.238281 14.128906 C 21.019531 14.128906 20.828125 14.046875 20.671875 13.890625 C 20.515625 13.734375 20.4375 13.546875 20.4375 13.324219 L 20.4375 12.789062 C 20.4375 12.566406 20.515625 12.375 20.671875 12.21875 C 20.828125 12.0625 21.019531 11.984375 21.238281 11.984375 C 21.460938 11.984375 21.652344 12.0625 21.808594 12.21875 C 21.964844 12.375 22.042969 12.566406 22.042969 12.789062 Z M 22.042969 13.324219 " fill-opacity="1" fill-rule="nonzero"/></g></svg>